<svg xmlns="http://www.w3.org/2000/svg" viewBox="0 0 512 512">
  <defs/>
  <path d="M170.667 196.267h-102.4c-5.12 0-8.533 3.413-8.533 8.533v34.133c0 5.12 3.413 8.533 8.533 8.533h102.4c5.12 0 8.533-3.413 8.533-8.533V204.8c0-5.12-3.413-8.533-8.533-8.533zm-8.534 34.133H76.8v-17.067h85.333zM443.733 196.267h-25.6v-25.6c0-5.12-3.413-8.533-8.533-8.533h-34.133c-5.12 0-8.533 3.413-8.533 8.533v25.6h-25.6c-5.12 0-8.533 3.413-8.533 8.533v34.133c0 5.12 3.413 8.533 8.533 8.533h25.6v25.6c0 5.12 3.413 8.533 8.533 8.533H409.6c5.12 0 8.533-3.413 8.533-8.533v-25.6h25.6c5.12 0 8.533-3.413 8.533-8.533V204.8c.001-5.12-3.413-8.533-8.533-8.533zM435.2 230.4h-25.6c-5.12 0-8.533 3.413-8.533 8.533v25.6H384v-25.6c0-5.12-3.413-8.533-8.533-8.533h-25.6v-17.067h25.6c5.12 0 8.533-3.413 8.533-8.533v-25.6h17.067v25.6c0 5.12 3.413 8.533 8.533 8.533h25.6z"/>
  <path d="M503.467 426.667h-8.533V128c0-5.12-3.413-8.533-8.533-8.533h-20.48l-14.507-29.013c-1.707-3.413-4.267-5.12-7.68-5.12V42.667c0-5.12-3.413-8.533-8.533-8.533H384c-5.12 0-8.533 3.413-8.533 8.533v42.667c-3.413 0-5.973 1.707-7.68 4.267l-14.933 29.867h-11.52V51.2c0-9.387-7.68-17.067-17.067-17.067H187.733c-9.387 0-17.067 7.68-17.067 17.067v68.267H158.72l-14.507-29.013c-1.707-3.413-4.267-5.12-7.68-5.12V42.667c0-5.12-3.413-8.533-8.533-8.533H76.8c-5.12 0-8.533 3.413-8.533 8.533v42.667c-3.413 0-5.973 1.707-7.68 4.267l-14.933 29.867H25.6c-5.12 0-8.533 3.413-8.533 8.533v298.667H8.533C3.413 426.667 0 430.08 0 435.2v34.133c0 5.12 3.413 8.533 8.533 8.533h494.933c5.12 0 8.533-3.413 8.533-8.533V435.2c.001-5.12-3.412-8.533-8.532-8.533zM392.533 51.2h34.133v34.133h-34.133zm-11.946 51.2H438.613l8.533 17.067h-75.093zM187.733 51.2h136.533v68.267H307.2V85.333c0-9.387-7.68-17.067-17.067-17.067h-68.267c-9.387 0-17.067 7.68-17.067 17.067v34.133h-17.067V51.2zm34.134 68.267V85.333h68.267v34.133h-68.267zM85.333 51.2h34.133v34.133H85.333zm-11.946 51.2H131.413l8.533 17.067H64.853zm-39.254 34.133H477.867v290.133H34.133zm460.8 324.267H17.067v-17.067H494.933z"/>
</svg>
