<svg xmlns="http://www.w3.org/2000/svg" viewBox="0 0 711.493 295.2">
  <path d="M545.427 13.177c-2.958-2.974-6.118-4.549-9.176-4.549-4.918.032-8.044 3.195-9.523 7.121-3.877.056-9.419.11-11.516.054-.95-.467-3.09-2.055-4.833-3.348-2.599-1.928-5.831-4.328-9.628-6.644C492.113.53 488.079.007 480.276.007h-.533V.004L247.728 1.309c-1.793 0-17.785.303-27.57 10.791l-.402.433-4.733 1.263c-3.576.956-7.944 3.53-8.431 3.82l-2.012 1.201-4.22 1.627c-.312.121-2.208.887-8.753 4.056-6.519 3.164-18.018 6.205-24.727 4.835-1.675-.346-3.297-.52-4.823-.52-9.169 0-12.338 6.044-12.664 6.717-8.012 16.548-1.478 49.559-.708 53.267l.402 1.209c.325.681 3.414 6.68 12.49 6.68 1.59 0 3.288-.19 5.05-.57 6.688-1.458 18.194 1.478 24.648 4.546 6.504 3.096 8.388 3.839 8.698 3.961l4.24 1.606 1.954 1.145c.486.29 4.849 2.821 8.425 3.733l4.659 1.19.384.412c9.341 10.022 24.374 10.53 27.292 10.53l230.606-1.294c8.948-.048 13.032-.075 22.672-6.026 3.82-2.356 7.074-4.789 9.694-6.749 1.774-1.325 3.957-2.957 4.912-3.428 1.638-.068 5.356-.079 8.758-.079l2.726.011c1.52 3.944 4.733 7.008 9.509 7.008 8.941-.057 21.424-15.527 21.581-44.424l.09-15.328c.138-24.812-8.378-36.065-12.048-39.755"/>
  <path d="M351.817 113.255c-110.43 0-199.953 2.546-199.953 5.685 0 3.141 89.523 5.687 199.953 5.687 110.432 0 199.954-2.546 199.954-5.687 0-3.139-89.522-5.685-199.954-5.685"/>
  <path fill="#696969" fill-rule="evenodd" d="M603.248 280.703v3.99h106.715v-3.99zM0 284.693h106.715v-3.99H0zM582.49 295.2h5.97v-5.83h-5.97zm-11.382-5.83h-6.607v-19.925h6.607zm-4.692-25.755l-1.915 1.648v-1.648h-7.698v5.83h1.708v19.924h-1.708v5.831h16.405l3.87-3.317v-24.93l-3.87-3.338zm-36.29 8.383h5.969v-2.553h1.668v19.924h-1.71v5.831h9.41v-5.83h-1.711v-19.925h1.668v2.553h5.97v-8.383h-21.263zm-4.506 17.371h-4.548v-19.924h1.707v-5.83h-9.407v5.83h1.708v19.924h-1.708v5.831h18.239v-8.384h-5.991zm-36.452-24.106l-1.935-1.648h-6.649l-3.87 3.317v24.97l3.809 3.298h10.745l3.87-3.297V276.48h-10.046v5.852h4.076v7.036h-6.464v-19.924h6.464v2.553h5.97v-8.383h-5.97zm-27.252 4.182h1.728v10.736l-6.547-16.566h-8.109v5.83h1.708v19.924h-1.728v5.831h9.407v-5.83h-1.73v-10.717l6.527 16.547h6.401v-25.755h1.73v-5.83h-9.387zm-27.768 0h1.71v19.924h-1.71v5.831h9.408v-5.83h-1.708v-19.925h1.708v-5.83h-9.408zm-11.401 19.924h-4.551v-19.924h1.71v-5.83h-9.409v5.83h1.71v19.924h-1.71v5.831h18.24v-8.384h-5.99zm-23.63-24.106l-1.792-1.648h-6.793l-3.808 3.317v24.97l3.808 3.298h10.644l3.91-3.297v-5.087h-5.969v2.553h-6.422v-19.924h6.422v2.553h5.97v-8.383h-5.97zm-26.965 4.182h1.03l-2.018 5.931-2.059-5.93h1.091v-5.831h-9.407v5.83h2.264l5.066 14.074v5.85h-1.69v5.831h9.408v-5.83h-1.668v-5.811l5.208-14.114h1.936v-5.83h-9.161zm-22.744-4.182l-1.79-1.648h-6.794l-3.808 3.317v24.97l3.808 3.298h10.643l3.91-3.297v-5.087h-5.969v2.553h-6.423v-19.924h6.423v2.553h5.97v-8.383h-5.97zm-36.681 4.182h1.709v19.924h-1.71v5.831h18.878v-8.384h-5.97v2.553h-5.227v-7.036h8.172v-5.852h-8.172v-7.036h5.228v2.553h5.969v-8.383h-18.877zm-12.472 7.036h-6.196v-7.036h6.196zm1.894 5.772l4.076-3.721v-11.6l-3.808-3.317h-6.422l-1.936 1.648v-1.648h-7.699v5.83h1.71v19.924h-1.71v5.831h9.408v-5.83h-1.71v-7.037h1.771l5.086 12.867h6.401v-5.83h-2.325zm-39.992-16.99l-1.914-1.648h-6.238l-3.85 3.317v12.084l3.85 3.317h8.152v7.036h-6.032v-2.553h-5.97v5.087l3.85 3.297h10.312l3.81-3.297V279.8l-3.81-3.319h-8.192v-7.036h6.032v2.553h5.97v-8.383h-5.97zm-23.404 24.106h-4.549v-19.924h1.71v-5.83h-9.409v5.83h1.71v19.924h-1.71v5.831h18.239v-8.384h-5.99zm-30.401-8.384l1.647-8.102 1.668 8.102zm5.845-17.37H205.8l-5.27 25.754h-1.585v5.831h9.408v-5.83h-1.73l.515-2.554h5.723l.515 2.553h-1.688v5.831h9.406v-5.83h-1.625zm-37.092 8.383h5.97v-2.553h1.668v19.924h-1.71v5.831h9.408v-5.83h-1.708v-19.925h1.667v2.553h5.97v-8.383h-21.265zm-24.288-2.553h1.71v19.924h-1.71v5.831h18.878v-8.384h-5.971v2.553h-5.228v-7.036h8.172v-5.852h-8.172v-7.036h5.228v2.553h5.97v-8.383h-18.877zm-7.181 0h1.708v-5.83h-7.699l-5.208 10.857-5.188-10.857h-7.699v5.83h1.73v19.924h-1.79v5.831h9.406v-5.83h-1.647v-11.962l5.188 10.856 5.208-10.856v11.961H138v5.831h9.406v-5.83h-1.769v-19.925"/>
  <path fill="#696969" d="M508.627 84.216c-.76 3.143-3.534 5.717-6.062 5.747-2.581.038-3.8-2.687-2.954-6.006 4.422-18.197 3.578-34.808-.01-52.588-.616-3.208.82-5.882 3.326-5.905 2.522-.017 5.433 2.684 6.234 5.98 4.411 18.19 3.574 35.365-.534 52.772zM223.095 39.264c-.934 13.92-.466 26.83-.202 40.63.134 1.266-.097 2.429-.744 3.271-.32.422-.742.763-1.245.998a3.979 3.979 0 01-1.476.359 4.404 4.404 0 01-.23.005c-2.483 0-4.314-1.915-4.223-4.286.481-13.125-.746-26.396-.248-40.76.05-1.3.604-2.49 1.47-3.356a4.917 4.917 0 011.503-1.028c.28-.121.57-.216.868-.281a4.76 4.76 0 01.908-.101c1.217-.002 2.255.513 2.885 1.34.319.412.54.902.662 1.445.03.136.056.275.073.417.01.071.016.143.023.215l.013.22c.01.295-.001.6-.037.912zm-15.142 33.75c.114 2.389-2.052 4.331-4.641 4.342-2.623.01-4.597-1.915-4.701-4.315-.231-4.344-.3-8.762-.21-13.242.086-4.482.344-9.026.667-13.635.161-2.545 2.241-4.63 4.715-4.627 2.457.004 4.365 2.107 4.242 4.663-.548 9.255-.584 18.161-.072 26.815zm328.06-59.231c-4.958.029-5.157 7.053-5.157 7.053s-13.915.239-16.632.095c-2.719-.146-8.284-5.702-16.572-10.764-8.036-4.91-11.004-5.042-19.052-5.002 6.612 81.098-.063 105.367-.063 105.367 5.702-44.168-2.246-96.596-3.668-105.345l-37.212.208c6.614 81.097-.061 105.366-.061 105.366 5.701-44.168-2.247-96.594-3.668-105.345l-38.49.216c6.613 81.096-.062 105.365-.062 105.365 5.701-44.166-2.248-96.594-3.67-105.345l-39.129.22c6.614 81.097-.062 105.367-.062 105.367 5.701-44.167-2.248-96.596-3.668-105.347l-39.77.223c6.612 81.097-.062 105.368-.062 105.368 5.701-44.168-2.248-96.596-3.668-105.347l-38.491.216c6.613 81.096-.061 105.367-.061 105.367 5.701-44.167-2.248-96.595-3.668-105.346l-15.572.087s-15.032-.235-23.72 9.073l-.03 5.11s.474 6.893-3.241 7.681c-3.713.787-4.463-2.53-4.463-2.53l.039-7.025c-2.947.783-7.055 3.232-7.055 3.232l-.029 5.11s-1.43 4.477-3.863 4.492c-2.43.013-3.188-1.898-3.188-1.898l.026-4.47s-1.667.648-8.338 3.877c-6.67 3.23-19.102 7.132-28.176 5.268-9.073-1.865-11.533 3.257-11.533 3.257-7.441 15.368-.279 49.811-.279 49.811s2.403 5.095 11.496 3.128c9.096-1.967 21.484 1.796 28.12 4.952 6.635 3.156 8.294 3.784 8.294 3.784l.025-4.47s.779-1.92 3.21-1.934c2.43-.013 3.813 4.45 3.813 4.45l-.028 5.109s4.08 2.402 7.018 3.153l.04-7.025s.786-3.324 4.492-2.579c3.706.745 3.155 7.645 3.155 7.645l-.028 5.108c8.584 9.212 23.619 8.808 23.619 8.808l230.296-1.29c8.634-.05 11.516-.066 19.86-5.22 8.345-5.156 13.973-10.775 16.692-10.95 2.72-.174 16.633-.093 16.633-.093s.119 7.024 5.077 6.996c4.959-.028 16.06-12.064 16.211-39.044l.087-15.328c.152-26.98-10.816-38.893-15.774-38.865"/>
  <path fill="#dedede" d="M451.161 7.667l-13.316.074a997.523 997.523 0 011.555 22.683l30.404-.17s3.361-.73 8.277-.28a482.685 482.685 0 00-2.457-19.874c-5.535-1.55-13.16-2.497-24.463-2.433zm49.686 18.604c-1.651-.735-3.151-1.54-4.42-2.426-6.204-4.328-8.875-9.325-17.35-12.609.512 6.75.932 13.084 1.268 19.02 4.072.641 8.896 2.136 13.67 5.34a33.547 33.547 0 006.98 3.584 174.778 174.778 0 00-1.394-7.81c-.413-2.158.103-4.069 1.246-5.1zM395.625 7.979c.646 8.13 1.158 15.685 1.555 22.682l39.984-.224c-1.057-10.282-2.197-18.321-2.865-22.677l-38.674.219zm112.383 20.83c.517.798.924 1.691 1.153 2.635.806 3.317 1.43 6.6 1.898 9.857 4.302.259 7.168-.364 7.168-.364l14.077-.078.044-7.826s-13.093-.997-24.34-4.224zM309.264 8.463a996.999 996.999 0 011.555 22.682l41.264-.23c-1.058-10.284-2.199-18.322-2.867-22.678l-39.952.226zm-53.608.3s-14.188-.568-31.833 9.013l-.018 2.867s.474 6.893-3.241 7.681c-3.713.787-4.463-2.53-4.463-2.53l.019-3.394a200.255 200.255 0 01-7.06 4.156l-.004.555s-1.43 4.477-3.863 4.492c-1.645.009-2.522-.863-2.918-1.428-14.227 7.18-28.007 11.502-39.859 11.192l-1.636 12.529s21.15-6.117 38.385-11.953c5.658-1.915 10.982-3.682 16.515-5.204a4.917 4.917 0 012.02-1.641c.28-.122.57-.217.868-.282a4.76 4.76 0 01.908-.101 3.773 3.773 0 012.001.545c9.79-2.281 20.75-3.73 35.615-3.813l9.27-.054c-1.057-10.281-2.2-18.32-2.866-22.674l-7.84.044zm11.388-.064a1012.7 1012.7 0 011.555 22.684l39.984-.226c-1.058-10.281-2.199-18.32-2.867-22.676l-38.672.218zm85.721-.48c.646 8.132 1.158 15.685 1.554 22.682 13.676-.076 27.508-.153 40.624-.228-1.058-10.282-2.198-18.32-2.866-22.676l-39.312.222"/>
  <path fill="#885f46" d="M485.421 5.368c-1.954-.204-4.094-.216-6.821-.203 6.612 81.098-.063 105.367-.063 105.367 5.702-44.168-2.246-96.596-3.668-105.345l-37.212.208c6.614 81.097-.061 105.366-.061 105.366 5.701-44.168-2.247-96.594-3.668-105.345l-38.49.216c6.613 81.096-.062 105.365-.062 105.365 5.701-44.166-2.248-96.594-3.67-105.345l-39.129.22c6.614 81.097-.062 105.367-.062 105.367 5.701-44.167-2.248-96.596-3.668-105.347l-39.77.223c6.612 81.097-.062 105.368-.062 105.368 5.701-44.168-2.248-96.596-3.668-105.347l-38.491.216c6.613 81.096-.061 105.367-.061 105.367 5.701-44.167-2.248-96.595-3.668-105.346l-15.572.087s-1.474-.023-3.763.23c1.615 9.991 3.245 64.745-.876 109.925-.024.257-.101.484-.156.729 2.516.275 4.17.233 4.17.233l230.297-1.29c3.688-.022 6.322-.039 8.785-.451 2.439-13.565 10.492-65.75-.59-110.468"/>
  <path fill="#d09069" d="M436.963 28.513c-.332-3.113-.668-6-.994-8.617v-.008c-.26-2.081-.509-3.99-.744-5.708l-.013-.097-.159-1.146-.013-.096a469.32 469.32 0 00-.468-3.261l-.008-.052-.13-.867c-.003-.028-.009-.057-.013-.085l-.122-.815V7.76l-38.674.219c.079 1.002.158 1.994.234 2.98.002.033.002.066.006.101.292 3.817.555 7.503.79 11.059.013.202.028.406.04.608.046.708.092 1.412.134 2.109.022.323.042.645.062.965.04.65.08 1.296.118 1.938.02.34.039.676.06 1.013l.111 1.91 39.984-.225a1663.39 1663.39 0 01-.201-1.924zm-42.222.238c-.33-3.114-.668-6.002-.992-8.618l-.001-.008c-.259-2.081-.51-3.99-.744-5.709-.004-.032-.01-.064-.013-.097l-.159-1.146c-.004-.03-.01-.064-.013-.096a487.135 487.135 0 00-.476-3.312c-.044-.301-.088-.59-.13-.866a1.945 1.945 0 00-.013-.087l-.123-.815-39.312.222c.079 1.001.156 1.994.232 2.978.003.035.004.07.008.103.294 3.817.555 7.503.79 11.059.012.202.026.406.04.608l.134 2.109.06.965a366.98 366.98 0 01.179 2.952c.039.639.075 1.279.11 1.908 13.677-.076 27.509-.153 40.625-.228l-.196-1.877-.006-.045zm81.878-11.395c-.051-.392-.102-.776-.15-1.153l-.006-.05-.146-1.08-.009-.076a400.919 400.919 0 01-.15-1.1c-.043-.322-.086-.64-.13-.949l-.012-.095-.127-.9-.012-.082c-.041-.296-.082-.586-.124-.866l-.006-.054-.123-.851c-5.535-1.55-13.16-2.497-24.463-2.433l-13.316.074a1130.368 1130.368 0 01.24 3.082c.294 3.817.556 7.502.791 11.06l.04.608c.047.709.09 1.41.135 2.108l.06.965c.04.65.081 1.297.118 1.939.022.338.04.676.062 1.013l.109 1.908 30.404-.17s3.361-.73 8.277-.28a513.3 513.3 0 00-1.46-12.597l-.002-.021zm11.142-.93c-2.294-1.929-4.914-3.729-8.684-5.19.19 2.512.37 4.967.534 7.363l.005.073c.05.735.1 1.464.148 2.19l.041.605c.08 1.221.158 2.426.231 3.618l.048.742.103 1.693.065 1.139.093 1.597a34.068 34.068 0 019.682 3.044 205.636 205.636 0 00-2.266-16.873zM266.16 29.473a499.216 499.216 0 00-.993-8.619v-.006c-.259-2.083-.51-3.992-.744-5.71-.006-.032-.008-.065-.014-.097-.053-.392-.105-.775-.158-1.147a355.915 355.915 0 00-.481-3.356l-.009-.052-.129-.866-.013-.086-.123-.814-7.84.044s-4.45-.178-11.461 1.348c.428 4.644.821 12.252 1.065 21.741a202.72 202.72 0 0111.832-.405l9.27-.054c-.066-.633-.131-1.258-.197-1.876l-.005-.045zm85.721-.48c-.332-3.115-.669-6.003-.993-8.62l-.001-.005a445.785 445.785 0 00-.744-5.71l-.012-.097a314.38 314.38 0 00-.172-1.241c-.168-1.2-.326-2.292-.468-3.263l-.008-.05-.13-.867-.013-.086a194.05 194.05 0 00-.124-.816l-39.952.226c.08 1.001.157 1.994.233 2.98l.007.1c.293 3.818.556 7.504.79 11.06l.04.608c.047.708.091 1.41.135 2.109l.06.964c.04.65.082 1.299.119 1.939l.06 1.013c.037.64.075 1.28.11 1.91 12.845-.073 26.934-.151 41.265-.231-.066-.636-.132-1.262-.198-1.879l-.004-.044zm-43.5.243c-.332-3.114-.669-6.002-.993-8.618l-.001-.008c-.259-2.081-.508-3.99-.744-5.708l-.012-.097-.159-1.147c-.004-.032-.01-.064-.013-.096a418.171 418.171 0 00-.478-3.312c-.042-.301-.086-.589-.128-.866l-.013-.087-.124-.815-38.672.218c.079 1.001.156 1.996.232 2.98l.008.102c.292 3.816.555 7.502.79 11.059l.04.608.135 2.11.06.963.119 1.938.059 1.014.112 1.91 39.984-.226-.198-1.877-.004-.045"/>
  <path fill="#696969" fill-rule="evenodd" d="M390.385 149.66l-10.142 58.85-9.41-58.85h-21.365v88.273h13.181l.392-62.477 10.83 62.477H387.2c.981-6.376 2.696-16.723 5.147-31.042 2.45-14.32 4.165-24.668 5.144-31.043l.393 62.085h13.133V149.66zm-70.857 54.926v.294c0 3.105-.016 5.355-.05 6.743-.031 1.39-.114 3.089-.243 5.1-.131 2.012-.36 3.425-.687 4.242-.327.818-.776 1.692-1.348 2.623-.572.933-1.315 1.547-2.23 1.84-.914.293-2.025.44-3.331.44-1.307 0-2.418-.147-3.334-.44-.914-.293-1.657-.914-2.228-1.864a18.3 18.3 0 01-1.348-2.648c-.326-.818-.556-2.248-.686-4.29-.131-2.043-.212-3.777-.244-5.2-.034-1.422-.05-3.702-.05-6.84V149.66h-17.837v55.465c0 2.812.081 5.361.245 7.65a60.01 60.01 0 00.955 7.111c.473 2.453 1.103 4.618 1.888 6.498a24.33 24.33 0 003.135 5.395 17.475 17.475 0 004.606 4.242c1.764 1.112 3.904 1.994 6.42 2.647 2.515.653 5.342.981 8.478.981s5.961-.328 8.477-.98c2.516-.654 4.663-1.536 6.444-2.648a17.35 17.35 0 004.632-4.242 24.44 24.44 0 003.136-5.395c.783-1.88 1.404-4.045 1.861-6.498.458-2.453.768-4.822.931-7.111.164-2.289.245-4.838.245-7.65V149.66h-17.837zm-60.517-8.778l-19.356-46.197h-12.84v88.322h15.338v-48.992l19.308 48.992h12.348v-88.322h-14.798zm-62.527 42.125h17.837V149.66h-17.837zM145.081 163h12.936v74.933h17.838V163h12.692v-13.34H145.08zm-32.195 45.068l4.656-32.759 4.46 32.76zm-3.282-58.408L90.54 237.933h17.69l3.431-18.88h11.516l3.626 18.88h17.592l-19.013-88.273zm-39.495 0H52.27v88.273h35.38v-12.26H70.11zm-43.514 25.404v2.672c0 .573-.024 1.333-.073 2.281-.05.948-.123 1.634-.22 2.059-.099.426-.246.973-.442 1.643s-.433 1.152-.71 1.446c-.278.295-.63.64-1.054 1.03a3.428 3.428 0 01-1.47.81c-.556.146-1.2.278-1.936.392-.735.115-1.576.172-2.523.172v-25.206c1.176 0 2.213.113 3.112.341.898.23 1.64.492 2.23.786.587.294 1.085.769 1.494 1.422.408.655.718 1.233.93 1.74.213.508.369 1.27.466 2.281.098 1.014.155 1.848.172 2.502.016.653.024 1.617.024 2.893v.736zm-5.097-25.404H.182v88.273h17.936v-37.761c3.299-.032 6.207-.286 8.723-.76 2.514-.473 4.85-1.29 7.006-2.452 2.157-1.16 3.921-2.697 5.294-4.61 1.372-1.913 2.44-4.34 3.21-7.282.766-2.943 1.15-6.408 1.15-10.397 0-8.107-1.748-14.303-5.243-18.586-3.496-4.282-9.083-6.425-16.76-6.425"/>
  <path fill="#888" d="M226.815 149.61v43.157c5.074.178 10.19.348 15.338.512v-4.338l1.731 4.394c4.728.148 9.487.289 14.268.424l-18.497-44.148zm59.097 44.847c5.921.131 11.868.247 17.837.352V149.66h-17.837zm33.616.596c5.933.08 11.88.145 17.837.198V149.66h-17.837zm29.94-45.393v45.677c4.48.024 8.964.035 13.45.04l.123-19.92 3.455 19.926h.508c3.713 0 7.425-.008 11.136-.02l-7.307-45.703zm40.917 0l-7.873 45.685c3.939-.018 7.875-.042 11.808-.074 1.423-8.447 2.481-14.927 3.17-19.423l.123 19.393c4.474-.041 8.944-.086 13.404-.144V149.66zm-131.374 44.124c4.908.137 9.842.268 14.798.39v-44.563h-14.798zm-62.527-2.174c5.877.243 11.828.478 17.837.702V149.66h-17.837zM21.498 149.66H.182v30.25c4.695.374 10.731.845 17.985 1.388v-18.935c1.176 0 2.213.113 3.112.341.898.23 1.64.492 2.23.786.587.294 1.085.769 1.494 1.422.408.655.718 1.233.93 1.74.213.508.369 1.27.466 2.281.098 1.014.155 1.848.172 2.502.016.653.024 1.617.024 2.893V177.736c0 .573-.024 1.333-.073 2.281-.043.838-.107 1.459-.189 1.887 5.052.37 10.54.763 16.458 1.176.471-2.484.71-5.283.71-8.41 0-8.106-1.748-14.302-5.243-18.585-3.496-4.282-9.083-6.425-16.76-6.425zm30.773 34.072c5.643.384 11.591.778 17.838 1.183V149.66H52.27zM145.081 163h12.936v26.884c5.851.284 11.803.563 17.838.836V163h12.692v-13.34H145.08zm-35.477-13.34l-8.033 37.195c4.633.272 9.376.545 14.215.817l1.756-12.363 1.71 12.556c4.754.266 9.597.528 14.53.79l-8.399-38.995h-15.78"/>
  <path fill="#885f46" fill-rule="evenodd" d="M694.59 175.064v2.672c0 .573-.022 1.333-.071 2.281-.05.948-.123 1.634-.22 2.059-.1.426-.247.973-.442 1.643-.197.67-.434 1.152-.712 1.446-.277.295-.628.64-1.053 1.03a3.423 3.423 0 01-1.47.81 19.74 19.74 0 01-1.935.392c-.735.115-1.576.172-2.524.172v-25.206c1.176 0 2.213.113 3.112.341.898.23 1.642.492 2.229.786.588.294 1.085.769 1.495 1.422.409.655.718 1.233.93 1.74.212.508.37 1.27.467 2.281.097 1.014.155 1.848.172 2.502.016.653.023 1.617.023 2.893v.736zm11.665-18.979c-3.496-4.282-9.083-6.425-16.76-6.425h-21.316v88.273h17.936v-37.761c3.3-.032 6.205-.286 8.722-.76 2.515-.473 4.852-1.29 7.007-2.452 2.156-1.16 3.92-2.697 5.293-4.61 1.372-1.913 2.442-4.34 3.21-7.282.766-2.943 1.15-6.408 1.15-10.397 0-8.107-1.746-14.303-5.242-18.586zm-68.015 48.501v.294c0 3.105-.017 5.355-.05 6.743-.033 1.39-.114 3.089-.245 5.1-.132 2.012-.36 3.425-.686 4.242-.327.818-.776 1.692-1.347 2.623-.572.933-1.316 1.547-2.23 1.84-.915.293-2.026.44-3.331.44-1.308 0-2.42-.147-3.334-.44-.914-.293-1.657-.914-2.229-1.864-.572-.948-1.021-1.83-1.348-2.648-.327-.818-.556-2.248-.687-4.29-.129-2.043-.212-3.777-.244-5.2-.033-1.422-.049-3.702-.049-6.84V149.66h-17.837v55.465c0 2.812.081 5.361.245 7.65a60.01 60.01 0 00.955 7.111c.474 2.453 1.102 4.618 1.886 6.498a24.342 24.342 0 003.138 5.395 17.454 17.454 0 004.606 4.242c1.763 1.112 3.903 1.994 6.419 2.647 2.515.653 5.341.981 8.479.981 3.134 0 5.96-.328 8.476-.98 2.516-.654 4.664-1.536 6.444-2.648a17.33 17.33 0 004.632-4.242 24.493 24.493 0 003.136-5.395c.784-1.88 1.404-4.045 1.862-6.498.458-2.453.767-4.822.931-7.111.163-2.289.245-4.838.245-7.65V149.66H638.24zm-62.43 8.336c0 8.666-2.663 12.997-7.987 12.997-5.294 0-7.939-4.331-7.939-12.997V174.77c0-1.6.105-3.081.319-4.438.213-1.355.58-2.73 1.102-4.119.523-1.39 1.339-2.484 2.45-3.287 1.11-.8 2.466-1.201 4.068-1.201 5.324 0 7.986 4.35 7.986 13.045zm-7.987-64.978c-17.184 0-25.776 10.43-25.776 31.288v29.67c0 3.53.269 6.784.809 9.758a33.087 33.087 0 002.695 8.41c1.256 2.633 2.849 4.855 4.777 6.67 1.927 1.815 4.377 3.253 7.352 4.316 2.97 1.061 6.352 1.593 10.143 1.593 3.821 0 7.218-.539 10.193-1.617 2.972-1.08 5.43-2.557 7.375-4.44 1.942-1.878 3.544-4.16 4.802-6.84a33.475 33.475 0 002.67-8.508c.522-2.992.785-6.253.785-9.784v-29.228c0-20.859-8.61-31.288-25.825-31.288zm-52.114 29.719c-.181 1.177-.49 2.469-.93 3.873-.442 1.407-1.152 2.567-2.132 3.483-.98.914-2.156 1.373-3.528 1.373h-5.096v-23.637h5.929c1.241 0 2.295.433 3.16 1.298.865.868 1.485 1.979 1.861 3.335.376 1.359.638 2.592.784 3.703.148 1.112.222 2.19.222 3.237 0 1.047-.091 2.157-.27 3.335zm11.442 14.172c1.536-1.372 2.712-2.771 3.529-4.192.816-1.423 1.461-3.057 1.936-4.904.472-1.847.775-3.49.907-4.93.129-1.438.196-3.072.196-4.902 0-4.217-.655-7.839-1.962-10.864-1.306-3.023-3.217-5.426-5.732-7.208-2.516-1.783-5.448-3.09-8.797-3.923-3.35-.835-7.228-1.252-11.639-1.252h-19.404v88.273h17.838V197.28h2.94l10.094 40.654h18.474c-3.92-11.638-8.526-25.86-13.819-42.665 2.09-.915 3.904-2.06 5.439-3.433zm-80.707 13.486h10.095v7.062c0 8.99-2.712 13.485-8.134 13.485-5.457 0-8.185-4.33-8.185-12.995V174.77c0-8.696 2.728-13.045 8.185-13.045 1.436 0 2.679.31 3.724.932 1.044.621 1.844 1.39 2.4 2.305.555.915.998 2.084 1.324 3.507.327 1.422.531 2.713.612 3.873.082 1.162.122 2.511.122 4.047v6.179h17.054v-5.199c0-3.499-.278-6.701-.833-9.612-.556-2.91-1.453-5.607-2.695-8.09-1.242-2.485-2.826-4.578-4.753-6.278-1.93-1.7-4.321-3.032-7.179-3.997-2.86-.964-6.118-1.447-9.776-1.447-17.348 0-26.021 10.43-26.021 31.288v31.09c0 2.846.245 5.617.735 8.314a34.792 34.792 0 002.45 7.92c1.143 2.584 2.556 4.83 4.238 6.742 1.682 1.912 3.824 3.451 6.42 4.611 2.597 1.16 5.48 1.74 8.649 1.74 2.94 0 5.799-.728 8.576-2.18 2.776-1.455 4.916-3.361 6.419-5.714l2.254 6.178h12.251v-45.41h-27.932v12.798"/>
  <path fill="#ab7b5b" d="M567.823 147.944c-17.184 0-25.776 10.43-25.776 31.288v12.153c6.025-.256 11.977-.52 17.837-.79V174.77c0-1.6.105-3.081.319-4.438.213-1.355.58-2.73 1.102-4.119.523-1.39 1.339-2.484 2.45-3.287 1.11-.8 2.466-1.201 4.068-1.201 5.324 0 7.986 4.35 7.986 13.045v15.071c6.06-.297 12.002-.599 17.839-.905v-9.703c0-20.859-8.61-31.288-25.825-31.288zm36.8 40.405c6.096-.332 12.037-.666 17.837-1.001V149.66h-17.837zm101.632-32.264c-3.496-4.282-9.083-6.425-16.76-6.425h-21.316v34.856c6.344-.421 12.333-.83 17.984-1.224v-20.93c1.176 0 2.213.114 3.112.342.898.23 1.642.492 2.229.786.588.294 1.085.769 1.495 1.422.409.655.718 1.233.93 1.74.212.508.37 1.27.467 2.281.097 1.014.155 1.848.172 2.502.016.653.023 1.617.023 2.893v3.408c0 .573-.023 1.333-.072 2.281-.05.948-.123 1.634-.22 2.059-.046.192-.102.412-.164.653 6.161-.438 11.816-.856 16.918-1.238.296-2.071.444-4.346.444-6.82 0-8.107-1.746-14.303-5.242-18.586zm-68.015 30.331c6.161-.375 12.11-.747 17.837-1.112V149.66H638.24zm-191.796 8.07c9.392-.202 18.707-.438 27.932-.698v-1.265h-27.932zm5.685-31.83c1.044.621 1.844 1.39 2.4 2.305.555.915.998 2.084 1.324 3.507.327 1.422.531 2.713.612 3.873.082 1.162.122 2.511.122 4.047v6.179h17.054v-5.199c0-3.499-.278-6.701-.833-9.612-.556-2.91-1.453-5.607-2.695-8.09-1.242-2.485-2.826-4.578-4.753-6.278-1.93-1.7-4.321-3.032-7.179-3.997-2.86-.964-6.118-1.447-9.776-1.447-17.348 0-26.021 10.43-26.021 31.288v15.703c5.968-.092 11.915-.199 17.836-.319V174.77c0-8.696 2.728-13.045 8.185-13.045 1.436 0 2.679.31 3.724.932zm63.58 15.007c-.181 1.177-.49 2.469-.93 3.873-.442 1.407-1.152 2.567-2.132 3.483-.98.914-2.156 1.373-3.528 1.373h-5.096v-23.637h5.929c1.241 0 2.295.433 3.16 1.298.865.868 1.485 1.979 1.861 3.335.376 1.359.638 2.592.784 3.703.148 1.112.222 2.19.222 3.237 0 1.047-.091 2.157-.27 3.335zm10.316-22.828c-2.516-1.783-5.448-3.09-8.797-3.923-3.35-.835-7.228-1.252-11.639-1.252h-19.404v43.78a4740.04 4740.04 0 0040.76-1.436c.067-.057.14-.11.206-.17 1.536-1.371 2.712-2.77 3.529-4.191.816-1.423 1.461-3.057 1.936-4.904.472-1.847.775-3.49.907-4.93.129-1.438.196-3.072.196-4.902 0-4.217-.655-7.839-1.962-10.864-1.306-3.023-3.217-5.426-5.732-7.208"/>
</svg>
